PathFileType	4	(X/Y/Z)	Patient4_TMGait_0pt4_02_left_32.trc.trc
DataRate	CameraRate	NumFrames	NumMarkers	Units	OrigDataRate	OrigDataStartFrame	OrigNumFrames
74.866310160428	74.866310160428	4	33	mm	74.866310160428	18	       141
Frame#	Time	Sacral			L.Shoulder			Chest			R.Shoulder			Neck			R.ASIS			L.ASIS			R.Thigh.Superior			R.Thigh.Lateral			R.Thigh.Inferior			R.Patella			L.Thigh.Superior			L.Thigh.Lateral			L.Thigh.Inferior			L.Patella			L.Shank.Superior			L.Shank.Lateral			L.Shank.Inferior			R.Shank.Superior			R.Shank.Lateral			R.Shank.Inferior			R.Heel			R.Midfoot.Superior			R.Midfoot.Lateral			R.Toe			L.Heel			L.Midfoot.Lateral			L.Midfoot.Superior			L.Toe			L.Elbow			L.Wrist			R.Elbow			R.Wrist			
		X1	Y1	Z1	X2	Y2	Z2	X3	Y3	Z3	X4	Y4	Z4	X5	Y5	Z5	X6	Y6	Z6	X7	Y7	Z7	X8	Y8	Z8	X9	Y9	Z9	X10	Y10	Z10	X11	Y11	Z11	X12	Y12	Z12	X13	Y13	Z13	X14	Y14	Z14	X15	Y15	Z15	X16	Y16	Z16	X17	Y17	Z17	X18	Y18	Z18	X19	Y19	Z19	X20	Y20	Z20	X21	Y21	Z21	X22	Y22	Z22	X23	Y23	Z23	X24	Y24	Z24	X25	Y25	Z25	X26	Y26	Z26	X27	Y27	Z27	X28	Y28	Z28	X29	Y29	Z29	X30	Y30	Z30	X31	Y31	Z31	X32	Y32	Z32	X33	Y33	Z33	

18	43.067071428571	844.612283601706	1012.023109884174	529.136623767511	1004.517191317793	1432.864508550346	321.078783716014	1133.387481366811	1362.458358890979	460.835144996915	1086.685889615141	1439.515145966851	646.428993137434	1016.201804872853	1494.631141716607	476.188427354790	1084.528972780264	937.755782652294	607.749442108148	1031.413188537517	964.745666005479	337.987028401853	1088.998573443082	728.274291382094	576.476688481526	1001.100134488439	630.050310847555	650.152742978968	1056.496062576361	569.509722801642	562.068995582376	1044.302937291573	485.126069389385	569.820355167736	1110.294523206077	782.231391031667	366.750862956324	1065.553863005333	655.461321868953	286.574591915112	1168.250592720146	596.061947907680	347.601472716226	1196.134892210034	530.973945224721	341.086547990917	1176.905805300640	457.812541389737	328.646423933084	1107.094815617965	332.154065320144	271.499736236136	1189.627067712466	227.769749288429	324.119669790799	1010.860010809705	398.023434692562	580.259504888816	936.047854005361	299.392831117505	646.081169380706	965.668841725612	202.536947464646	580.316813986782	821.827890349806	42.312882161525	554.617837664243	992.435517457637	96.147553854393	589.682927474807	904.801362555409	36.713696941328	629.935815682970	1113.154902501953	43.848637923592	618.578854854719	1101.982791605322	47.211953793811	355.241604203172	1176.802568793182	54.566584348250	276.595692012122	1246.385483402465	133.034963734659	300.978378499952	1380.568933245439	106.673411838363	275.175370313647	869.093807185623	1098.233166990921	247.737215475139	839.081656109269	839.848997114781	267.192158345563	1225.923767654137	1134.757810062881	770.023429772425	1449.860921376787	1224.146486374617	702.554134803956	
19	43.080428571429	845.366458647095	1011.357370760357	527.216911666234	1004.148143681536	1432.477078221857	319.335226663089	1133.400164499283	1362.025600799992	458.701207555661	1086.994954442552	1438.788638699836	644.462194624878	1016.121495627237	1494.053817864124	474.409215226523	1085.239122575112	937.282396810906	606.102148015215	1032.298487932048	963.620308463358	336.172612522795	1087.889793382864	727.344876398581	575.610471440484	998.756910557956	629.778017103453	649.220796004229	1053.857806666588	568.598624348199	561.612295584367	1040.871994216947	484.399647670214	569.337109459853	1110.744865702995	780.235243745465	364.702776685349	1063.309994086012	652.719209779078	286.486038854418	1166.488477367362	593.241476177262	346.205109950810	1193.520699727656	528.185946193403	340.745313739064	1174.283302655967	455.053420803388	328.820419322405	1103.976172389302	329.268379074164	272.981295917202	1186.653006198542	225.113055707115	325.631798759046	1007.003592308485	397.591250489202	579.842505243617	931.659862186978	299.465923343340	645.935511381551	960.791133386180	202.288641833697	580.225291432104	816.440811793834	42.293034072412	554.630756898351	987.046310697347	96.070317799834	589.759302636435	899.390609944859	36.651248177102	629.982234914824	1107.764181152390	43.677659806804	618.641114838374	1098.509685836327	45.891539898088	358.351218619812	1172.812248563487	52.102976426124	279.177504141030	1243.379381061212	129.625653593880	302.792543558049	1376.945531003945	101.575049060869	276.242379167037	865.947976752405	1099.172191705520	247.264543353269	834.067537118596	840.996701739710	267.597834635507	1228.082240820886	1134.344247072428	766.198379914847	1450.398322579923	1227.404257852183	699.019066616083	
20	43.093785714286	846.342798286978	1010.438785181420	525.042803068362	1003.852831210376	1431.904813173598	317.361179957510	1133.388209370262	1361.581423964710	456.512298481414	1086.965674341111	1437.991844547282	642.399222830067	1015.922916936257	1493.356849417213	472.431392288059	1086.199385202253	936.729352848615	604.432814116342	1033.559875390756	962.325135914120	334.345130840512	1087.200857218036	726.354841636902	574.720967521564	996.755300569586	629.424504009417	648.177052601441	1051.614829383493	567.591424173233	561.097907220446	1037.813382531491	483.548173771608	568.759169249121	1111.420682014603	777.782727034250	362.499575369853	1061.018723817805	649.711475303472	286.350024490786	1164.624960761252	590.073776487860	344.855607377142	1190.645081296582	524.862316081938	340.366026905495	1171.171895933274	451.760889824362	328.949240209591	1099.829783347688	326.052104033868	274.640395902978	1182.430712735740	221.878149050359	327.202281212927	1003.439665736402	397.057238182911	579.334469909274	927.486149942809	299.521503831340	645.733796734258	956.024488863744	201.984722472614	580.103814352806	811.059059639547	42.260281360005	554.657910293329	981.659702102457	95.980997919912	589.839043443289	893.987022844468	36.576809560563	630.037423642029	1102.378119597531	43.477191062544	618.713246250206	1093.156757702355	44.465375572949	361.664784045882	1166.800998824317	49.324750423467	281.807396756833	1238.782999133853	125.445957860392	304.669291662146	1371.548084887113	95.060797599631	277.052812048371	863.658829653601	1099.630168197623	246.317260893568	830.404386488279	841.602444360055	267.393080669515	1229.420595942779	1133.502895632729	762.346946091430	1450.640157279254	1229.251985524402	695.698657553367	
21	43.107142857143	847.510034393584	1009.312504730615	522.645411589705	1003.644991063551	1431.165112125069	315.157973207719	1133.369235613163	1361.139512600713	454.266093924481	1086.635556750975	1437.150001986655	640.242591312942	1015.634405681735	1492.567053844005	470.258284439457	1087.391478979973	936.096055030646	602.712224455616	1035.135953300979	960.927344666672	332.497533974673	1086.960656161913	725.309227754249	573.770794259722	995.150491643834	628.990806545566	646.993083205236	1049.798800163299	566.492738232386	560.472451930976	1035.167913520255	482.564519347602	568.036400184795	1112.229951560313	774.938133946171	360.186435340271	1058.712049612619	646.570382839115	286.111859006426	1162.657073236894	586.683186335830	343.587906488307	1187.535564473291	521.168555054927	339.980173783546	1167.691179534683	448.114664398849	329.022750151450	1094.976681400660	322.622937769896	276.323891854606	1177.317447381353	218.255686262439	328.762497352015	1000.200701103216	396.418753441656	578.700002071542	923.563431581023	299.568627523259	645.457636151375	951.385784420447	201.634876954632	579.941268975022	805.683723311536	42.234531652060	554.711765585390	976.281173881666	95.885775705774	589.920387617586	888.596155989860	36.497043358736	630.103502837897	1096.999315999923	43.243841802153	618.794868507503	1086.427714449226	43.007084820081	364.937212257675	1159.380382716178	46.411067873669	284.344567706928	1233.064652719059	120.766317078848	306.597366168108	1364.930225860980	87.583026512496	277.790199374011	862.237259193565	1099.593447801037	244.879154001339	828.102596014251	841.648458566994	266.544539446367	1229.927751434038	1132.225642198996	758.502848562457	1450.616507440412	1229.666673890537	692.625624535695	
